<?xml version="1.0" encoding="UTF-8" standalone="no"?>
<svg id="svg3355" xmlns:rdf="http://www.w3.org/1999/02/22-rdf-syntax-ns#" xmlns="http://www.w3.org/2000/svg" xml:space="preserve" height="6218.8" viewBox="0 0 6218.75 6218.75" width="6218.8" version="1.1" xmlns:cc="http://creativecommons.org/ns#" xmlns:dc="http://purl.org/dc/elements/1.1/"><metadata id="metadata3361"><rdf:RDF><cc:Work rdf:about=""><dc:format>image/svg+xml</dc:format><dc:type rdf:resource="http://purl.org/dc/dcmitype/StillImage"/><dc:title/></cc:Work></rdf:RDF></metadata><defs id="defs3359"><clipPath id="clipPath3371" clipPathUnits="userSpaceOnUse"><path id="path3373" d="m14670 0h-14670v14670h14670v-14670m-3710.6 9825.8c-124.4-356-350.2-677.3-645.5-911.75-60.7-60.78-124.4-115.8-179.4-185.25-2.9-2.91-8.7-5.8-11.6-8.7-72.3-89.73-133.15-170.76-191.03-269.19-81.03-138.91-138.94-277.86-188.13-428.36-2.89-8.7-2.89-20.29-5.81-28.96-46.29-147.61-66.55-295.22-81.03-445.76 31.85 17.37 52.1 40.52 83.95 63.7 26.04 17.36 52.08 37.62 75.25 60.77 20.26 17.37 40.52 31.84 60.78 46.32 173.72 141.84 329.92 274.97 495.02 422.59 138.9 127.36 269.1 243.15 396.5 379.18 5.8 5.8 8.7 14.48 14.4 20.25 118.7 124.47 211.4 257.61 295.3 408.14 89.7 167.87 141.8 338.66 170.8 526.79v17.37c17.3 112.88 17.3 222.87 8.7 335.77-2.9 20.26-2.9 43.41-5.8 63.67-8.7 78.17-23.2 150.57-43.4 225.77-31.9 107.1-69.5 208.4-118.7 306.8-104.2-69.4-199.8-144.7-304-225.8-153.4-124.4-292.3-240.19-442.8-364.65-191.1-164.99-367.6-315.52-535.49-503.65-2.89-2.89-2.89-8.67-5.78-11.59-20.26-23.15-40.52-46.3-60.78-69.44-17.37-26.07-37.62-49.22-54.99-75.28-20.26-31.82-43.44-57.89-60.81-89.73-2.89-8.67-5.78-17.37-11.59-26.04-23.14-31.85-40.51-60.77-54.99-95.51-11.56-31.85-31.81-57.91-43.4-89.73-8.68-28.96-20.26-55-31.85-81.06-23.15-60.78-37.63-121.58-54.99-185.24-17.37-75.25-26.04-144.73-34.74-219.98-8.67-112.88-8.67-219.97 5.81-332.88 5.78-37.63 11.56-72.37 17.37-109.99 0-5.78 5.78-8.67 5.78-14.48 17.36-107.1 52.1-205.5 89.73-303.9 28.95 211.28 89.73 416.81 179.46 613.64 8.66 17.37 17.36 37.62 26.04 54.99 63.69 124.47 136.05 234.46 222.89 347.33 46.3 57.89 92.63 109.99 144.73 162.1 89.7 89.73 182.3 162.09 289.4 240.23 8.7 5.81 11.6 14.48 20.3 20.26 101.3 81.06 185.2 162.09 263.4 263.41 2.9 2.89 8.7 5.78 11.6 8.67 28.9 34.74 52.1 66.58 78.1 104.21 17.4 26.07 31.9 49.21 49.2 72.36 2.9 5.78 2.9 8.7 5.8 14.48 63.7 98.4 112.9 193.94 156.3 298.12"/></clipPath><radialGradient id="radialGradient3375" gradientUnits="userSpaceOnUse" cy="0" cx="0" gradientTransform="matrix(11137 0 0 -11137 7335 7335)" r="1"><stop id="stop3377" stop-color="#fff" offset="0"/><stop id="stop3379" stop-color="#fff" offset=".24950"/><stop id="stop3381" stop-color="#fff" offset=".56571"/><stop id="stop3383" stop-color="#fff" offset=".75725"/><stop id="stop3385" stop-color="#7b7979" offset="1"/></radialGradient><clipPath id="clipPath3393" clipPathUnits="userSpaceOnUse"><path id="path3395" d="m11807 3987.5c0-499.99-2024.8-905.29-4522.5-905.29s-4522.5 405.3-4522.5 905.29 2024.8 905.29 4522.5 905.29 4522.5-405.3 4522.5-905.29z"/></clipPath><radialGradient id="radialGradient3397" gradientUnits="userSpaceOnUse" cy="0" cx="0" gradientTransform="matrix(4222.1 0 0 -761.25 7284.2 3987.5)" r="1"><stop id="stop3399" stop-color="#7b7979" offset="0"/><stop id="stop3401" stop-color="#fff" offset=".44717"/><stop id="stop3403" stop-color="#fff" offset=".8"/><stop id="stop3405" stop-color="#fff" offset="1"/></radialGradient><clipPath id="clipPath3415" clipPathUnits="userSpaceOnUse"><path id="path3417" d="m9656.9 7547.8c14.48 150.54 34.74 298.15 81.03 445.76 2.92 8.67 2.92 20.26 5.81 28.96 49.19 150.5 107.1 289.45 188.13 428.36 57.88 98.43 118.73 179.46 191.03 269.19 2.9 2.9 8.7 5.79 11.6 8.7 55 69.45 118.7 124.47 179.4 185.25 295.3 234.45 521.1 555.75 645.5 911.75-43.4-104.18-92.6-199.72-156.3-298.12-2.9-5.78-2.9-8.7-5.8-14.48-17.3-23.15-31.8-46.29-49.2-72.36-26-37.63-49.2-69.47-78.1-104.21-2.9-2.89-8.7-5.78-11.6-8.67-78.2-101.32-162.1-182.35-263.4-263.41-8.7-5.78-11.6-14.45-20.3-20.26-107.1-78.14-199.7-150.5-289.4-240.23-52.1-52.11-98.43-104.21-144.73-162.1-86.84-112.87-159.2-222.86-222.89-347.33-8.68-17.37-17.38-37.62-26.04-54.99-89.73-196.83-150.51-402.36-179.46-613.64-37.63 98.4-72.37 196.8-89.73 303.9 0 5.81-5.78 8.7-5.78 14.48-5.81 37.62-11.59 72.36-17.37 109.99-14.48 112.91-14.48 220-5.81 332.88 8.7 75.25 17.37 144.73 34.74 219.98 17.36 63.66 31.84 124.46 54.99 185.24 11.59 26.06 23.17 52.1 31.85 81.06 11.59 31.82 31.84 57.88 43.4 89.73 14.48 34.74 31.85 63.66 54.99 95.51 5.81 8.67 8.7 17.37 11.59 26.04 17.37 31.84 40.55 57.91 60.81 89.73 17.37 26.06 37.62 49.21 54.99 75.28 20.26 23.14 40.52 46.29 60.78 69.44 2.89 2.92 2.89 8.7 5.78 11.59 167.89 188.13 344.39 338.66 535.49 503.65 150.5 124.46 289.4 240.25 442.8 364.65 104.2 81.1 199.8 156.4 304 225.8 49.2-98.4 86.8-199.7 118.7-306.8 20.2-75.2 34.7-147.6 43.4-225.77 2.9-20.26 2.9-43.41 5.8-63.67 8.6-112.9 8.6-222.89-8.7-335.77v-17.37c-29-188.13-81.1-358.92-170.8-526.79-83.9-150.53-176.6-283.67-295.3-408.14-5.7-5.77-8.6-14.45-14.4-20.25-127.4-136.03-257.6-251.82-396.5-379.18-165.1-147.62-321.3-280.75-495.02-422.59-20.26-14.48-40.52-28.95-60.78-46.32-23.17-23.15-49.21-43.41-75.25-60.77-31.85-23.18-52.1-46.33-83.95-63.7"/></clipPath><radialGradient id="radialGradient3419" gradientUnits="userSpaceOnUse" cy="0" cx="0" gradientTransform="matrix(11137 0 0 -11137 7335 7335)" r="1"><stop id="stop3421" stop-color="#7fcc28" offset="0"/><stop id="stop3423" stop-color="#7fcc28" offset=".56571"/><stop id="stop3425" stop-color="#3b5f10" offset="1"/></radialGradient><filter id="filter3729" style="color-interpolation-filters:sRGB"><feColorMatrix id="feColorMatrix3731" values="1 0 0 0 0 0 1 0 0 0 0 0 1 0 0 -3.9 10 -6.47 0.91 0 " result="colormatrix" in="SourceGraphic"/><feComposite id="feComposite3733" operator="in" result="fbSourceGraphic" in2="SourceGraphic" in="colormatrix"/><feColorMatrix id="feColorMatrix3735" values="0 0 0 -1 0 0 0 0 -1 0 0 0 0 -1 0 0 0 0 1 0" result="fbSourceGraphicAlpha" in="fbSourceGraphic"/><feColorMatrix id="feColorMatrix3737" result="colormatrix" values="1 0 0 0 0 0 1 0 0 0 0 0 1 0 0 -3.9 10 -6.47 0.91 0 " in="fbSourceGraphic"/><feComposite id="feComposite3739" operator="in" result="composite1" in2="fbSourceGraphic" in="colormatrix"/></filter></defs><g id="g3363" transform="matrix(1.25 0 0 -1.25 0 6218.8)"><g id="g3365" transform="scale(.33913)" filter="url(#filter3729)"><g id="g3367"><g id="g3369" clip-path="url(#clipPath3371)"><path id="path3387" d="m14670 0h-14670v14670h14670v-14670m-3710.6 9825.8c-124.4-356-350.2-677.3-645.5-911.75-60.7-60.78-124.4-115.8-179.4-185.25-2.9-2.91-8.7-5.8-11.6-8.7-72.3-89.73-133.15-170.76-191.03-269.19-81.03-138.91-138.94-277.86-188.13-428.36-2.89-8.7-2.89-20.29-5.81-28.96-46.29-147.61-66.55-295.22-81.03-445.76 31.85 17.37 52.1 40.52 83.95 63.7 26.04 17.36 52.08 37.62 75.25 60.77 20.26 17.37 40.52 31.84 60.78 46.32 173.72 141.84 329.92 274.97 495.02 422.59 138.9 127.36 269.1 243.15 396.5 379.18 5.8 5.8 8.7 14.48 14.4 20.25 118.7 124.47 211.4 257.61 295.3 408.14 89.7 167.87 141.8 338.66 170.8 526.79v17.37c17.3 112.88 17.3 222.87 8.7 335.77-2.9 20.26-2.9 43.41-5.8 63.67-8.7 78.17-23.2 150.57-43.4 225.77-31.9 107.1-69.5 208.4-118.7 306.8-104.2-69.4-199.8-144.7-304-225.8-153.4-124.4-292.3-240.19-442.8-364.65-191.1-164.99-367.6-315.52-535.49-503.65-2.89-2.89-2.89-8.67-5.78-11.59-20.26-23.15-40.52-46.3-60.78-69.44-17.37-26.07-37.62-49.22-54.99-75.28-20.26-31.82-43.44-57.89-60.81-89.73-2.89-8.67-5.78-17.37-11.59-26.04-23.14-31.85-40.51-60.77-54.99-95.51-11.56-31.85-31.81-57.91-43.4-89.73-8.68-28.96-20.26-55-31.85-81.06-23.15-60.78-37.63-121.58-54.99-185.24-17.37-75.25-26.04-144.73-34.74-219.98-8.67-112.88-8.67-219.97 5.81-332.88 5.78-37.63 11.56-72.37 17.37-109.99 0-5.78 5.78-8.67 5.78-14.48 17.36-107.1 52.1-205.5 89.73-303.9 28.95 211.28 89.73 416.81 179.46 613.64 8.66 17.37 17.36 37.62 26.04 54.99 63.69 124.47 136.05 234.46 222.89 347.33 46.3 57.89 92.63 109.99 144.73 162.1 89.7 89.73 182.3 162.09 289.4 240.23 8.7 5.81 11.6 14.48 20.3 20.26 101.3 81.06 185.2 162.09 263.4 263.41 2.9 2.89 8.7 5.78 11.6 8.67 28.9 34.74 52.1 66.58 78.1 104.21 17.4 26.07 31.9 49.21 49.2 72.36 2.9 5.78 2.9 8.7 5.8 14.48 63.7 98.4 112.9 193.94 156.3 298.12" fill="url(#radialGradient3375)"/></g></g><g id="g3389"><g id="g3391" clip-path="url(#clipPath3393)"><path id="path3407" d="m11807 3987.5c0-499.99-2024.8-905.29-4522.5-905.29s-4522.5 405.3-4522.5 905.29 2024.8 905.29 4522.5 905.29 4522.5-405.3 4522.5-905.29" fill="url(#radialGradient3397)"/></g></g><path id="path3409" d="m12171 6358.8c-10.4 1.12-25.8 2.89-45.8 5.45-39.9 5.08-98.4 13.33-172.5 25.84-74 12.38-163.5 29.37-265.4 51.27-50.9 11.24-105 23.3-161.7 37.28-28.4 6.72-57.4 14.3-87.1 21.73-14.8 3.89-29.8 7.81-44.9 11.8-15.2 3.98-30.5 7.99-45.8 12.29-15.5 4.25-31 8.52-46.8 12.83-15.6 4.48-31.5 8.99-47.4 13.56-32 8.97-64.4 18.9-97.3 28.66-65.8 20.17-133.5 41.49-202.6 64.99-69.1 23.12-139.5 48.54-211 75.08-17.8 6.78-35.8 13.62-53.8 20.49-9 3.42-18 6.9-27 10.35-9 3.57-18 7.17-27.1 10.74-18.1 7.16-36.2 14.36-54.4 21.61-18.2 7.49-36.4 14.98-54.6 22.53-146.1 60.36-294.2 128.53-441.1 203.02-9.2 4.63-18.4 9.29-27.6 13.92-9.1 4.78-18.3 9.58-27.4 14.36-18.3 9.58-36.57 19.19-54.89 28.84-9.19 4.74-18.25 9.76-27.33 14.74-9.08 4.95-18.16 9.94-27.27 14.92-9.09 4.96-18.17 9.94-27.28 14.92-9.08 4.98-18.19 9.88-27.19 15.1-18.01 10.26-36.03 20.55-54.08 30.84l-27.04 15.42-26.77 15.9c-17.84 10.58-35.68 21.2-53.52 31.79-17.81 10.61-35.33 21.76-52.99 32.61l-26.45 16.34c-8.79 5.48-17.63 10.79-26.31 16.48-17.36 11.24-34.73 22.44-52.1 33.65l-26 16.77c-8.65 5.64-17.17 11.5-25.72 17.23-17.07 11.5-34.14 22.96-51.19 34.44-17.16 11.29-33.76 23.38-50.57 35.06-16.72 11.73-33.44 23.47-50.16 35.2-16.42 12.01-32.85 24.04-49.24 36.01-8.17 6.01-16.37 12-24.54 17.98-8.14 5.99-16.36 11.86-24.32 18.08-129.04 97.16-250.82 198.21-363.38 300.6-112.61 102.35-215.99 206.02-309.32 307.76-11.56 12.8-23.03 25.53-34.41 38.15-5.69 6.31-11.39 12.59-17.01 18.84-5.64 6.29-11.36 12.42-16.73 18.85-21.76 25.36-43.2 50.33-64.28 74.92-5.31 6.05-10.38 12.33-15.42 18.55-5.04 6.23-10.09 12.42-15.1 18.58-10.03 12.3-19.96 24.48-29.78 36.53-19.93 23.89-38.28 48.36-56.58 71.95-37.07 46.8-70.07 93.57-102.27 137.15-4.07 5.4-7.81 11.06-11.65 16.54-3.8 5.52-7.57 10.97-11.32 16.4-7.52 10.88-14.92 21.59-22.23 32.14-7.29 10.53-14.48 20.91-21.56 31.14-1.77 2.54-3.54 5.1-5.31 7.64-1.68 2.59-3.36 5.16-5.04 7.72-3.33 5.13-6.66 10.23-9.96 15.28-26.22 40.54-51.49 77.76-72.84 113.58-10.91 17.72-21.35 34.71-31.34 50.96-2.51 4.07-4.99 8.05-7.41 12.03-1.24 1.97-2.44 3.92-3.65 5.9-1.15 1.91-2.19 3.8-3.28 5.69-4.3 7.51-8.49 14.86-12.56 21.99-16.36 28.49-30.96 53.91-43.67 76.02-14.15 25.63-26.18 47.39-35.94 65.08-19.49 35.33-29.9 54.17-29.9 54.17l-309.5 559.23-309.53-559.23s-10.41-18.84-29.9-54.17c-9.76-17.69-21.79-39.45-35.95-65.08-12.71-22.11-27.3-47.53-43.64-76.02-4.1-7.13-8.29-14.48-12.59-21.99-1.09-1.89-2.13-3.78-3.27-5.69-1.21-1.98-2.42-3.93-3.63-5.9-2.45-3.98-4.92-7.96-7.43-12.03-10-16.25-20.44-33.24-31.35-50.96-21.35-35.82-46.62-73.04-72.83-113.58-3.3-5.05-6.61-10.15-9.97-15.28-1.68-2.56-3.36-5.13-5.04-7.72-1.77-2.54-3.54-5.1-5.31-7.64-7.08-10.23-14.27-20.61-21.55-31.14-7.32-10.55-14.72-21.26-22.21-32.14-3.77-5.43-7.55-10.88-11.35-16.4-3.83-5.48-7.58-11.14-11.65-16.54-32.17-43.58-65.2-90.35-102.26-137.15-18.31-23.59-36.65-48.06-56.59-71.95-9.82-12.05-19.75-24.23-29.78-36.53-5.01-6.16-10.03-12.35-15.1-18.58-5.04-6.22-10.11-12.5-15.42-18.55-21.08-24.59-42.49-49.56-64.25-74.92-5.4-6.43-11.12-12.56-16.75-18.85-5.63-6.25-11.3-12.53-16.99-18.84-11.41-12.62-22.88-25.35-34.44-38.15-93.33-101.74-196.71-205.41-309.29-307.76-112.58-102.39-234.37-203.44-363.4-300.6-7.96-6.22-16.19-12.09-24.33-18.08-8.17-5.98-16.34-11.97-24.53-17.98-16.4-11.97-32.82-24-49.25-36.01-16.69-11.73-33.41-23.47-50.16-35.2-16.8-11.68-33.41-23.77-50.54-35.06-17.07-11.48-34.14-22.94-51.22-34.44-8.55-5.73-17.07-11.59-25.68-17.23l-26.01-16.77c-17.37-11.21-34.76-22.41-52.13-33.65-8.64-5.69-17.52-11-26.31-16.48l-26.42-16.34c-17.66-10.85-35.17-22-53.01-32.61-17.84-10.59-35.68-21.21-53.52-31.79l-26.78-15.9-27.04-15.42c-18.05-10.29-36.06-20.58-54.08-30.84-8.96-5.22-18.1-10.12-27.18-15.1-9.12-4.98-18.2-9.96-27.28-14.92-9.08-4.98-18.2-9.97-27.28-14.92-9.08-4.98-18.13-10-27.3-14.74-18.34-9.65-36.63-19.26-54.91-28.84-9.14-4.78-18.28-9.58-27.42-14.36-9.2-4.63-18.4-9.29-27.57-13.92-146.94-74.49-294.97-142.66-441.08-203.02-18.28-7.55-36.47-15.04-54.58-22.53-18.25-7.25-36.39-14.45-54.46-21.61-9.02-3.57-18.05-7.17-27.04-10.74-9.05-3.45-18.08-6.93-27.07-10.35-18.02-6.87-35.92-13.71-53.76-20.49-71.53-26.54-141.95-51.96-211.07-75.08-69.03-23.5-136.76-44.82-202.52-64.99-32.96-9.76-65.34-19.69-97.31-28.66-15.98-4.57-31.78-9.08-47.47-13.56-15.72-4.31-31.29-8.58-46.71-12.83-15.39-4.3-30.69-8.31-45.82-12.29-15.16-3.99-30.14-7.91-44.94-11.8-29.7-7.43-58.68-15.01-87.08-21.73-56.7-13.98-110.78-26.04-161.71-37.28-101.91-21.9-191.43-38.89-265.44-51.27-74.02-12.51-132.52-20.76-172.51-25.84-19.99-2.56-35.32-4.33-45.7-5.45-10.35-1.09-15.72-1.65-15.72-1.65s5.4-0.29 15.81-0.88c10.41-0.57 25.89-1.27 46.09-1.95 40.4-1.39 99.7-2.6 175.3-2.1 75.61 0.39 167.49 2.87 272.94 8.23 52.69 2.98 108.86 6.25 167.99 11.06 29.6 2.12 59.86 5.01 90.94 7.64 15.53 1.5 31.22 3 47.09 4.54 15.89 1.53 31.93 3.09 48.12 4.89 16.22 1.74 32.61 3.51 49.16 5.31 16.54 1.95 33.23 3.92 50.09 5.9 33.77 3.83 68.03 8.52 102.98 13.03 69.79 9.61 141.98 20.08 215.99 32.59 74.1 12.11 149.98 26.36 227.56 41.63 19.34 3.98 38.8 7.99 58.38 12.03 9.79 2.04 19.58 4.07 29.43 6.13 9.82 2.16 19.64 4.34 29.52 6.49 19.72 4.37 39.54 8.73 59.47 13.12 19.85 4.66 39.81 9.35 59.86 14.07 160.38 37.75 325.1 83.36 491.15 136.29 10.38 3.28 20.79 6.58 31.19 9.88 10.35 3.45 20.73 6.9 31.11 10.35 20.76 6.93 41.58 13.89 62.4 20.87 10.46 3.43 20.78 7.14 31.17 10.83 10.4 3.65 20.78 7.31 31.19 11 10.38 3.68 20.82 7.37 31.23 11.05 10.41 3.69 20.88 7.32 31.2 11.24 20.76 7.76 41.52 15.51 62.3 23.27l31.23 11.67 31.02 12.21c20.73 8.14 41.46 16.3 62.19 24.47 20.73 8.2 41.23 16.99 61.87 25.45l30.93 12.86c10.32 4.31 20.7 8.46 30.87 13 20.49 8.97 40.99 17.9 61.46 26.86l30.72 13.42c10.2 4.57 20.32 9.32 30.49 13.95 20.32 9.35 40.61 18.7 60.89 28.04 20.41 9.17 40.34 19.2 60.45 28.84 20.11 9.73 40.19 19.47 60.24 29.16 19.88 10.12 39.73 20.2 59.54 30.26 9.91 5.07 19.81 10.11 29.69 15.15 9.88 5.08 19.85 10.03 29.58 15.34 157.08 82.62 308.61 171.59 451.69 264.68 143.1 93.03 277.71 190.16 401.76 287.86 15.39 12.32 30.7 24.59 45.91 36.77 7.61 6.1 15.19 12.18 22.74 18.22 7.52 6.07 15.13 12 22.41 18.28 29.4 24.77 58.39 49.19 86.87 73.19 7.2 5.95 14.1 12.15 21.02 18.28 6.91 6.13 13.8 12.24 20.65 18.31 13.74 12.18 27.33 24.24 40.81 36.21 27.24 23.68 52.78 48.13 78.2 71.75 51.28 46.91 98.04 94.27 143.43 138.7 5.69 5.52 11.08 11.27 16.54 16.9 5.42 5.63 10.82 11.21 16.19 16.78 4.8 4.98 9.58 9.94 14.36 14.89 4.75-4.95 9.52-9.91 14.33-14.89 5.36-5.57 10.76-11.15 16.18-16.78 5.49-5.63 10.86-11.38 16.58-16.9 45.35-44.43 92.15-91.79 143.39-138.7 25.42-23.62 50.99-48.07 78.21-71.75 13.47-11.97 27.07-24.03 40.81-36.21 6.84-6.07 13.74-12.18 20.67-18.31 6.9-6.13 13.83-12.33 20.99-18.28 28.49-24 57.47-48.42 86.87-73.19 7.29-6.28 14.9-12.21 22.44-18.28 7.55-6.04 15.13-12.12 22.74-18.22 15.18-12.18 30.49-24.45 45.91-36.77 124.02-97.7 258.63-194.83 401.73-287.86 143.11-93.09 294.65-182.06 451.72-264.68 9.71-5.31 19.67-10.26 29.55-15.34 9.91-5.04 19.82-10.08 29.72-15.15 19.82-10.06 39.66-20.14 59.54-30.26 20.05-9.69 40.1-19.43 60.21-29.16 20.14-9.64 40.08-19.67 60.45-28.84 20.29-9.34 40.58-18.69 60.92-28.04 10.14-4.63 20.26-9.38 30.47-13.95l30.72-13.42c20.49-8.96 40.96-17.89 61.45-26.86 10.2-4.54 20.55-8.69 30.88-13l30.93-12.86c20.64-8.46 41.16-17.25 61.89-25.45 20.73-8.17 41.46-16.33 62.16-24.47l31.05-12.21 31.2-11.67c20.79-7.76 41.55-15.51 62.3-23.27 10.33-3.92 20.79-7.55 31.2-11.24 10.44-3.68 20.85-7.37 31.26-11.05 10.38-3.69 20.79-7.35 31.17-11 10.38-3.69 20.73-7.4 31.17-10.83 20.84-6.98 41.63-13.94 62.39-20.87 10.38-3.45 20.76-6.9 31.11-10.35 10.41-3.3 20.82-6.6 31.2-9.88 166.09-52.93 330.79-98.54 491.19-136.29 20-4.72 40-9.41 59.8-14.07 19.9-4.39 39.8-8.75 59.5-13.12 9.9-2.15 19.7-4.33 29.5-6.49 9.9-2.06 19.6-4.09 29.4-6.13 19.6-4.04 39.1-8.05 58.4-12.03 77.6-15.27 153.5-29.52 227.6-41.63 74-12.51 146.2-22.98 216-32.59 34.9-4.51 69.2-9.2 102.9-13.03 16.9-1.98 33.6-3.95 50.1-5.9 16.6-1.8 33-3.57 49.2-5.31 16.2-1.8 32.3-3.36 48.1-4.89 15.9-1.54 31.6-3.04 47.1-4.54 31.1-2.63 61.3-5.52 90.9-7.64 59.2-4.81 115.3-8.08 168-11.06 105.5-5.36 197.4-7.84 273-8.23 75.6-0.5 134.9 0.71 175.3 2.1 20.2 0.68 35.7 1.38 46.1 1.95 10.4 0.59 15.8 0.88 15.8 0.88s-5.4 0.56-15.7 1.65" fill="#1c6434"/><g id="g3411"><g id="g3413" clip-path="url(#clipPath3415)"><path id="path3427" d="m9656.9 7547.8c14.48 150.54 34.74 298.15 81.03 445.76 2.92 8.67 2.92 20.26 5.81 28.96 49.19 150.5 107.1 289.45 188.13 428.36 57.88 98.43 118.73 179.46 191.03 269.19 2.9 2.9 8.7 5.79 11.6 8.7 55 69.45 118.7 124.47 179.4 185.25 295.3 234.45 521.1 555.75 645.5 911.75-43.4-104.18-92.6-199.72-156.3-298.12-2.9-5.78-2.9-8.7-5.8-14.48-17.3-23.15-31.8-46.29-49.2-72.36-26-37.63-49.2-69.47-78.1-104.21-2.9-2.89-8.7-5.78-11.6-8.67-78.2-101.32-162.1-182.35-263.4-263.41-8.7-5.78-11.6-14.45-20.3-20.26-107.1-78.14-199.7-150.5-289.4-240.23-52.1-52.11-98.43-104.21-144.73-162.1-86.84-112.87-159.2-222.86-222.89-347.33-8.68-17.37-17.38-37.62-26.04-54.99-89.73-196.83-150.51-402.36-179.46-613.64-37.63 98.4-72.37 196.8-89.73 303.9 0 5.81-5.78 8.7-5.78 14.48-5.81 37.62-11.59 72.36-17.37 109.99-14.48 112.91-14.48 220-5.81 332.88 8.7 75.25 17.37 144.73 34.74 219.98 17.36 63.66 31.84 124.46 54.99 185.24 11.59 26.06 23.17 52.1 31.85 81.06 11.59 31.82 31.84 57.88 43.4 89.73 14.48 34.74 31.85 63.66 54.99 95.51 5.81 8.67 8.7 17.37 11.59 26.04 17.37 31.84 40.55 57.91 60.81 89.73 17.37 26.06 37.62 49.21 54.99 75.28 20.26 23.14 40.52 46.29 60.78 69.44 2.89 2.92 2.89 8.7 5.78 11.59 167.89 188.13 344.39 338.66 535.49 503.65 150.5 124.46 289.4 240.25 442.8 364.65 104.2 81.1 199.8 156.4 304 225.8 49.2-98.4 86.8-199.7 118.7-306.8 20.2-75.2 34.7-147.6 43.4-225.77 2.9-20.26 2.9-43.41 5.8-63.67 8.6-112.9 8.6-222.89-8.7-335.77v-17.37c-29-188.13-81.1-358.92-170.8-526.79-83.9-150.53-176.6-283.67-295.3-408.14-5.7-5.77-8.6-14.45-14.4-20.25-127.4-136.03-257.6-251.82-396.5-379.18-165.1-147.62-321.3-280.75-495.02-422.59-20.26-14.48-40.52-28.95-60.78-46.32-23.17-23.15-49.21-43.41-75.25-60.77-31.85-23.18-52.1-46.33-83.95-63.7" fill="url(#radialGradient3419)"/></g></g></g></g></svg>
